<?xml version="1.0" encoding="UTF-8" standalone="no"?>
<!-- Created with Inkscape (http://www.inkscape.org/) -->

<svg
   width="256"
   height="64"
   viewBox="0 0 67.73333 16.933333"
   version="1.1"
   id="svg5"
   xml:space="preserve"
   inkscape:version="1.2.2 (732a01da63, 2022-12-09)"
   sodipodi:docname="feather.svg"
   xmlns:inkscape="http://www.inkscape.org/namespaces/inkscape"
   xmlns:sodipodi="http://sodipodi.sourceforge.net/DTD/sodipodi-0.dtd"
   xmlns="http://www.w3.org/2000/svg"
   xmlns:svg="http://www.w3.org/2000/svg"><sodipodi:namedview
     id="namedview7"
     pagecolor="#505050"
     bordercolor="#eeeeee"
     borderopacity="1"
     inkscape:showpageshadow="0"
     inkscape:pageopacity="0"
     inkscape:pagecheckerboard="0"
     inkscape:deskcolor="#505050"
     inkscape:document-units="mm"
     showgrid="false"
     inkscape:zoom="5.4600956"
     inkscape:cx="240.92985"
     inkscape:cy="6.5932912"
     inkscape:window-width="3440"
     inkscape:window-height="1369"
     inkscape:window-x="-8"
     inkscape:window-y="-8"
     inkscape:window-maximized="1"
     inkscape:current-layer="layer1" /><defs
     id="defs2" /><g
     inkscape:label="Layer 1"
     inkscape:groupmode="layer"
     id="layer1"><path
       style="fill:#ff0000;fill-opacity:0.994334;stroke:#000000;stroke-width:0.729648;stroke-linecap:square;stroke-linejoin:miter;stroke-dasharray:none;stroke-opacity:1;paint-order:normal"
       d="M 66.873244,6.2979562 C 68.783449,4.4856036 32.721885,-0.4441112 16.615793,3.3931749 15.25574,3.7172082 14.139416,4.5880496 13.219996,5.4586286 c 0,0 0.05456,-0.8863425 0.754538,-1.8451295 0,0 -2.372975,0.9251925 -3.474596,2.5668264 -3.0268831,0.030576 -6.2704283,0.2357037 -9.4886774,0.2579762 -0.38941802,0.00103 -0.22495246,1.6556735 0.097317,1.5599272 2.9782889,0.019057 7.796237,-0.1399418 8.9649914,-0.098685 0.09382,2.7324371 0.663962,4.6221301 3.079377,6.1091201 -0.691178,-1.295562 -0.694337,-2.760187 -0.694337,-2.760187 0,0 0.871665,1.510608 4.940274,3.32374 -2.324387,-2.08751 -2.459113,-2.831055 -2.459113,-2.831055 0,0 1.841725,1.67428 3.428843,2.15997 4.379621,1.340253 10.254656,1.110148 15.234666,0.9158 -1.071044,-1.049237 -1.134193,-2.330837 -1.134193,-2.330837 0,0 1.874697,1.766256 3.014192,2.206406 0.33056,0.127684 1.047308,0.102226 1.047308,0.102226 -1.057761,-0.927427 -1.342317,-1.955778 -1.342317,-1.955778 0,0 1.397173,1.248311 3.776239,1.545596 4.766308,0.595592 11.795478,-0.672786 15.436234,-1.025875 1.629068,-0.15799 3.553359,-0.58166 3.553359,-0.58166 -1.270306,-0.592973 -2.197352,-2.395646 -2.197352,-2.395646 1.37743,0.900616 2.673056,2.109218 4.280368,1.889998 2.523598,-0.344192 3.581006,-2.214972 4.519185,-2.8758517 -1.079663,-0.3422334 -1.751853,-1.2943341 -1.751853,-1.2943341 0,0 1.808759,0.6560742 2.70714,0.4757652 0,0 1.235633,-0.9687491 1.361655,-2.2789875 z"
       id="path971"
       sodipodi:nodetypes="cacsccccccccsccascssscsccscc" /></g></svg>
